<mxfile host="Electron" agent="Mozilla/5.0 (X11; Linux x86_64) AppleWebKit/537.36 (KHTML, like Gecko) draw.io/24.7.17 Chrome/128.0.6613.36 Electron/32.0.1 Safari/537.36" version="24.7.17">
  <diagram name="Seite-1" id="OrlBIwGTqLkX88x5vuH2">
    <mxGraphModel dx="1195" dy="696" grid="1" gridSize="10" guides="1" tooltips="1" connect="1" arrows="1" fold="1" page="1" pageScale="1" pageWidth="827" pageHeight="1169" math="0" shadow="0">
      <root>
        <mxCell id="0" />
        <mxCell id="1" parent="0" />
        <mxCell id="p41N5mjKM8FmIKYZiOsq-20" value="" style="rounded=0;whiteSpace=wrap;html=1;" vertex="1" parent="1">
          <mxGeometry x="60" y="380" width="600" height="280" as="geometry" />
        </mxCell>
        <mxCell id="p41N5mjKM8FmIKYZiOsq-5" value="Steering&lt;br&gt;Angle" style="rounded=0;whiteSpace=wrap;html=1;fillColor=#f5f5f5;fontColor=#333333;strokeColor=#666666;" vertex="1" parent="1">
          <mxGeometry x="160" y="400" width="80" height="80" as="geometry" />
        </mxCell>
        <mxCell id="p41N5mjKM8FmIKYZiOsq-6" value="Break&lt;br&gt;Preassure" style="rounded=0;whiteSpace=wrap;html=1;fillColor=#f5f5f5;fontColor=#333333;strokeColor=#666666;" vertex="1" parent="1">
          <mxGeometry x="320" y="400" width="80" height="80" as="geometry" />
        </mxCell>
        <mxCell id="p41N5mjKM8FmIKYZiOsq-7" value="LV&lt;br&gt;Voltage" style="rounded=0;whiteSpace=wrap;html=1;fillColor=#f5f5f5;fontColor=#333333;strokeColor=#666666;" vertex="1" parent="1">
          <mxGeometry x="480" y="400" width="80" height="80" as="geometry" />
        </mxCell>
        <mxCell id="p41N5mjKM8FmIKYZiOsq-8" value="LV&lt;br&gt;Voltage" style="rounded=0;whiteSpace=wrap;html=1;fillColor=#f5f5f5;fontColor=#333333;strokeColor=#666666;" vertex="1" parent="1">
          <mxGeometry x="560" y="560" width="80" height="80" as="geometry" />
        </mxCell>
        <mxCell id="p41N5mjKM8FmIKYZiOsq-9" value="MABX" style="rounded=0;whiteSpace=wrap;html=1;fillColor=#f5f5f5;fontColor=#333333;strokeColor=#666666;" vertex="1" parent="1">
          <mxGeometry x="240" y="560" width="80" height="80" as="geometry" />
        </mxCell>
        <mxCell id="p41N5mjKM8FmIKYZiOsq-10" value="CAN&lt;br&gt;Interface" style="rounded=0;whiteSpace=wrap;html=1;fillColor=#f5f5f5;fontColor=#333333;strokeColor=#666666;" vertex="1" parent="1">
          <mxGeometry x="400" y="560" width="80" height="80" as="geometry" />
        </mxCell>
        <mxCell id="p41N5mjKM8FmIKYZiOsq-11" value="" style="endArrow=none;html=1;rounded=0;" edge="1" parent="1">
          <mxGeometry width="50" height="50" relative="1" as="geometry">
            <mxPoint x="200" y="520" as="sourcePoint" />
            <mxPoint x="200" y="480" as="targetPoint" />
          </mxGeometry>
        </mxCell>
        <mxCell id="p41N5mjKM8FmIKYZiOsq-12" value="" style="endArrow=none;html=1;rounded=0;" edge="1" parent="1">
          <mxGeometry width="50" height="50" relative="1" as="geometry">
            <mxPoint x="360" y="520" as="sourcePoint" />
            <mxPoint x="360" y="480" as="targetPoint" />
          </mxGeometry>
        </mxCell>
        <mxCell id="p41N5mjKM8FmIKYZiOsq-13" value="" style="endArrow=none;html=1;rounded=0;" edge="1" parent="1">
          <mxGeometry width="50" height="50" relative="1" as="geometry">
            <mxPoint x="519.71" y="520" as="sourcePoint" />
            <mxPoint x="519.71" y="480" as="targetPoint" />
          </mxGeometry>
        </mxCell>
        <mxCell id="p41N5mjKM8FmIKYZiOsq-14" value="" style="endArrow=none;html=1;rounded=0;" edge="1" parent="1">
          <mxGeometry width="50" height="50" relative="1" as="geometry">
            <mxPoint x="439.71000000000004" y="560" as="sourcePoint" />
            <mxPoint x="439.71000000000004" y="520" as="targetPoint" />
          </mxGeometry>
        </mxCell>
        <mxCell id="p41N5mjKM8FmIKYZiOsq-15" value="" style="endArrow=none;html=1;rounded=0;" edge="1" parent="1">
          <mxGeometry width="50" height="50" relative="1" as="geometry">
            <mxPoint x="599.6600000000001" y="560" as="sourcePoint" />
            <mxPoint x="599.6600000000001" y="520" as="targetPoint" />
          </mxGeometry>
        </mxCell>
        <mxCell id="p41N5mjKM8FmIKYZiOsq-16" value="" style="endArrow=none;html=1;rounded=0;" edge="1" parent="1">
          <mxGeometry width="50" height="50" relative="1" as="geometry">
            <mxPoint x="279.71000000000004" y="560" as="sourcePoint" />
            <mxPoint x="279.71000000000004" y="520" as="targetPoint" />
          </mxGeometry>
        </mxCell>
        <mxCell id="p41N5mjKM8FmIKYZiOsq-17" value="" style="endArrow=none;html=1;rounded=0;" edge="1" parent="1">
          <mxGeometry width="50" height="50" relative="1" as="geometry">
            <mxPoint x="200" y="520" as="sourcePoint" />
            <mxPoint x="600" y="520" as="targetPoint" />
          </mxGeometry>
        </mxCell>
        <mxCell id="p41N5mjKM8FmIKYZiOsq-18" value="Yellow&lt;br&gt;Pirat" style="rounded=0;whiteSpace=wrap;html=1;fillColor=#dae8fc;strokeColor=#6c8ebf;" vertex="1" parent="1">
          <mxGeometry x="80" y="560" width="80" height="80" as="geometry" />
        </mxCell>
        <mxCell id="p41N5mjKM8FmIKYZiOsq-19" value="" style="endArrow=none;html=1;rounded=0;entryX=0.5;entryY=0;entryDx=0;entryDy=0;" edge="1" parent="1" target="p41N5mjKM8FmIKYZiOsq-18">
          <mxGeometry width="50" height="50" relative="1" as="geometry">
            <mxPoint x="200" y="520" as="sourcePoint" />
            <mxPoint x="250" y="470" as="targetPoint" />
            <Array as="points">
              <mxPoint x="120" y="520" />
            </Array>
          </mxGeometry>
        </mxCell>
      </root>
    </mxGraphModel>
  </diagram>
</mxfile>
